<?xml version="1.0" standalone="no"?>
<!DOCTYPE svg PUBLIC "-//W3C//DTD SVG 20010904//EN"
 "http://www.w3.org/TR/2001/REC-SVG-20010904/DTD/svg10.dtd">
<svg version="1.0" xmlns="http://www.w3.org/2000/svg"
 width="723.000000pt" height="650.000000pt" viewBox="0 0 723.000000 650.000000"
 preserveAspectRatio="xMidYMid meet">
<metadata>
Created by potrace 1.15, written by Peter Selinger 2001-2017
</metadata>
<g transform="translate(0.000000,650.000000) scale(0.100000,-0.100000)"
fill="#000000" stroke="none">
<path d="M3485 6257 c-93 -95 -208 -197 -340 -302 -309 -245 -444 -396 -570
-636 -115 -222 -161 -425 -152 -678 9 -257 63 -453 228 -829 169 -382 196
-446 238 -557 61 -163 97 -293 125 -457 l7 -38 180 0 179 0 -4 23 c-3 12 -10
56 -16 97 -26 165 -102 426 -186 627 -18 45 -85 198 -148 340 -179 404 -225
546 -248 750 -21 179 16 361 107 543 93 185 214 324 425 488 74 58 176 140
226 183 l91 78 94 -80 c52 -45 150 -125 219 -179 277 -216 437 -437 512 -706
18 -66 22 -105 22 -239 0 -147 -3 -169 -32 -276 -41 -155 -88 -276 -225 -584
-63 -144 -133 -306 -155 -360 -86 -216 -163 -494 -178 -644 l-7 -61 178 2 179
3 13 80 c34 202 103 396 300 845 185 420 230 549 269 770 22 124 22 337 1 456
-49 272 -188 541 -398 767 -44 48 -167 157 -272 241 -217 173 -330 274 -438
392 -41 45 -76 82 -79 83 -3 0 -68 -64 -145 -142z"/>
<path d="M1067 4434 c-104 -19 -239 -70 -339 -130 -97 -58 -254 -208 -318
-303 -142 -212 -206 -468 -181 -715 7 -61 16 -115 21 -120 8 -8 179 23 302 55
l36 9 -5 118 c-5 98 -2 131 16 202 63 253 233 442 463 515 400 126 799 -125
1068 -670 66 -134 149 -375 174 -505 9 -47 19 -95 22 -107 4 -23 6 -23 179
-23 l175 0 0 28 c0 80 -57 325 -115 491 -223 639 -641 1074 -1112 1156 -105
18 -282 18 -386 -1z"/>
<path d="M5772 4429 c-401 -84 -740 -395 -983 -904 -96 -201 -192 -516 -214
-707 l-7 -58 181 0 181 0 0 26 c0 64 63 298 121 446 176 451 456 759 771 844
85 24 251 24 338 0 219 -60 402 -236 478 -463 24 -70 26 -93 27 -231 0 -145 1
-153 20 -158 152 -35 291 -64 305 -64 25 0 35 74 35 245 -1 148 -17 238 -68
375 -107 283 -350 520 -632 617 -163 55 -381 68 -553 32z"/>
<path d="M1660 2290 l0 -170 1970 0 1970 0 0 170 0 170 -1970 0 -1970 0 0
-170z"/>
<path d="M2996 1791 c-22 -139 -133 -387 -250 -561 l-78 -115 55 -110 c124
-249 320 -464 582 -640 106 -71 290 -165 322 -165 27 0 233 105 318 162 255
171 463 399 582 636 65 129 67 107 -32 252 -105 151 -200 364 -235 523 l-13
57 -180 0 -179 0 7 -47 c28 -189 156 -521 258 -666 l19 -28 -35 -52 c-84 -126
-236 -273 -382 -371 -130 -88 -121 -87 -211 -31 -154 96 -327 257 -421 391
l-41 60 24 39 c109 175 210 434 248 635 l14 70 -183 0 -182 0 -7 -39z"/>
</g>
</svg>
